<svg aria-hidden="true" style="position: absolute; width: 0; height: 0; overflow: hidden;" version="1.1" xmlns="http://www.w3.org/2000/svg" xmlns:xlink="http://www.w3.org/1999/xlink">
<defs>

<symbol id="icon-book" viewBox="0 0 32 32">
<svg xmlns="http://www.w3.org/2000/svg" width="32" height="32" fill="#000000" viewBox="0 0 256 256"><path d="M208,24H72A32,32,0,0,0,40,56V224a8,8,0,0,0,8,8H192a8,8,0,0,0,0-16H56a16,16,0,0,1,16-16H208a8,8,0,0,0,8-8V32A8,8,0,0,0,208,24Zm-8,160H72a31.82,31.82,0,0,0-16,4.29V56A16,16,0,0,1,72,40H200Z"></path></svg>
</symbol>
<symbol id="icon-dark-theme" viewBox="0 0 32 32">
<svg xmlns="http://www.w3.org/2000/svg" width="32" height="32" fill="#000000" viewBox="0 0 256 256"><path d="M233.54,142.23a8,8,0,0,0-8-2,88.08,88.08,0,0,1-109.8-109.8,8,8,0,0,0-10-10,104.84,104.84,0,0,0-52.91,37A104,104,0,0,0,136,224a103.09,103.09,0,0,0,62.52-20.88,104.84,104.84,0,0,0,37-52.91A8,8,0,0,0,233.54,142.23ZM188.9,190.34A88,88,0,0,1,65.66,67.11a89,89,0,0,1,31.4-26A106,106,0,0,0,96,56,104.11,104.11,0,0,0,200,160a106,106,0,0,0,14.92-1.06A89,89,0,0,1,188.9,190.34Z"></path></svg>
</symbol>
<symbol id="icon-light-theme" viewBox="0 0 32 32">
<svg xmlns="http://www.w3.org/2000/svg" width="32" height="32" fill="#000000" viewBox="0 0 256 256"><path d="M120,40V16a8,8,0,0,1,16,0V40a8,8,0,0,1-16,0Zm72,88a64,64,0,1,1-64-64A64.07,64.07,0,0,1,192,128Zm-16,0a48,48,0,1,0-48,48A48.05,48.05,0,0,0,176,128ZM58.34,69.66A8,8,0,0,0,69.66,58.34l-16-16A8,8,0,0,0,42.34,53.66Zm0,116.68-16,16a8,8,0,0,0,11.32,11.32l16-16a8,8,0,0,0-11.32-11.32ZM192,72a8,8,0,0,0,5.66-2.34l16-16a8,8,0,0,0-11.32-11.32l-16,16A8,8,0,0,0,192,72Zm5.66,114.34a8,8,0,0,0-11.32,11.32l16,16a8,8,0,0,0,11.32-11.32ZM48,128a8,8,0,0,0-8-8H16a8,8,0,0,0,0,16H40A8,8,0,0,0,48,128Zm80,80a8,8,0,0,0-8,8v24a8,8,0,0,0,16,0V216A8,8,0,0,0,128,208Zm112-88H216a8,8,0,0,0,0,16h24a8,8,0,0,0,0-16Z"></path></svg>
</symbol>
<symbol id="icon-search" viewBox="0 0 32 32">
<svg xmlns="http://www.w3.org/2000/svg" class="ionicon" viewBox="0 0 512 512"><path d="M456.69 421.39L362.6 327.3a173.81 173.81 0 0034.84-104.58C397.44 126.38 319.06 48 222.72 48S48 126.38 48 222.72s78.38 174.72 174.72 174.72A173.81 173.81 0 00327.3 362.6l94.09 94.09a25 25 0 0035.3-35.3zM97.92 222.72a124.8 124.8 0 11124.8 124.8 124.95 124.95 0 01-124.8-124.8z" fill="#9475af"/></svg>
</symbol>
<symbol id="icon-play" viewBox="0 0 32 32">
<svg xmlns="http://www.w3.org/2000/svg" class="ionicon" viewBox="0 0 512 512"><path d="M133 440a35.37 35.37 0 01-17.5-4.67c-12-6.8-19.46-20-19.46-34.33V111c0-14.37 7.46-27.53 19.46-34.33a35.13 35.13 0 0135.77.45l247.85 148.36a36 36 0 010 61l-247.89 148.4A35.5 35.5 0 01133 440z " fill="#9475af"/></svg>
</svg>
<symbol id="icon-playing" viewBox="0 0 32 32">
<svg xmlns="http://www.w3.org/2000/svg" class="ionicon" viewBox="0 0 512 512"><path fill="none" stroke="currentColor" stroke-linecap="round" stroke-linejoin="round" stroke-width="32" d="M176 96h16v320h-16zM320 96h16v320h-16z"/></svg>
</symbol>
</symbol>
<symbol id="icon-loader" viewBox="0 0 32 32">
<svg xmlns="http://www.w3.org/2000/svg" class="ionicon" viewBox="0 0 512 512"><path d="M400 148l-21.12-24.57A191.43 191.43 0 00240 64C134 64 48 150 48 256s86 192 192 192a192.09 192.09 0 00181.07-128" fill="none" stroke="currentColor" stroke-linecap="round" stroke-miterlimit="10" stroke-width="32"/><path d="M464 97.42V208a16 16 0 01-16 16H337.42c-14.26 0-21.4-17.23-11.32-27.31L436.69 86.1C446.77 76 464 83.16 464 97.42z"/></svg>
</symbol>


</defs>
</svg>




